<?xml version="1.0" encoding="UTF-8"?>
<svg width="14px" height="10px" viewBox="0 0 14 10" version="1.1" xmlns="http://www.w3.org/2000/svg" xmlns:xlink="http://www.w3.org/1999/xlink">
    <!-- Generator: Sketch 59 (86127) - https://sketch.com -->
    <title>Path</title>
    <desc>Created with Sketch.</desc>
    <g id="Page-1" stroke="none" stroke-width="1" fill="none" fill-rule="evenodd">
        <path d="M1,0 C1,1.1045695 1.8954305,2 3,2 L11,2 C12.6568542,2 14,3.34314575 14,5 C14,6.65685425 12.6568542,8 11,8 L3,8 C1.8954305,8 1,8.8954305 1,10 L0,10 C0,8.34314575 1.34314575,7 3,7 L11,7 C12.1045695,7 13,6.1045695 13,5 C13,3.8954305 12.1045695,3 11,3 L3,3 C1.34314575,3 0,1.65685425 0,0 L1,0 Z" id="Path" fill="#D8D8D8"></path>
    </g>
</svg>